<svg width="251" height="209" viewBox="0 0 251 209" fill="none" xmlns="http://www.w3.org/2000/svg">
<path d="M224.099 104.547L249.312 125.531C251.563 127.405 251.563 130.028 249.312 131.901C247.061 133.775 243.909 133.775 241.658 131.901L214.194 109.043H195.285L215.095 125.531C217.346 127.405 217.346 130.028 215.095 131.901C212.844 133.775 209.692 133.775 207.441 131.901L179.977 109.043H138.557L190.783 152.511H229.502C232.653 152.511 234.904 154.385 234.904 157.008C234.904 159.631 232.653 161.504 229.502 161.504H193.934V191.107C193.934 193.73 191.683 195.604 188.531 195.604C185.38 195.604 183.129 193.73 183.129 191.107V158.881L130.903 115.414V149.888L158.366 172.746C160.617 174.619 160.617 177.242 158.366 179.116C156.115 180.99 152.964 180.99 150.713 179.116L130.903 162.628V178.367L158.366 201.225C160.617 203.098 160.617 205.721 158.366 207.595C156.115 209.468 152.964 209.468 150.713 207.595L125.5 186.61L100.287 207.595C98.0363 209.468 94.8848 209.468 92.6336 207.595C90.3825 205.721 90.3825 203.098 92.6336 201.225L120.097 178.367V162.628L100.287 179.116C98.0363 180.99 94.8848 180.99 92.6336 179.116C90.3825 177.242 90.3825 174.619 92.6336 172.746L120.097 149.888V115.414L67.8713 158.881V191.107C67.8713 193.73 65.6202 195.604 62.4686 195.604C59.317 195.604 57.0659 193.73 57.0659 191.107V161.504H21.4982C18.3466 161.504 16.0955 159.631 16.0955 157.008C16.0955 154.385 18.3466 152.511 21.4982 152.511H60.2175L112.443 109.043H71.0229L43.5592 131.901C41.3081 133.775 38.1565 133.775 35.9054 131.901C33.6543 130.028 33.6543 127.405 35.9054 125.531L55.7152 109.043H36.8058L9.34216 131.901C7.09103 133.775 3.93946 133.775 1.68834 131.901C-0.56278 130.028 -0.56278 127.405 1.68834 125.531L26.9009 104.547L1.68834 83.5625C-0.56278 81.6889 -0.56278 79.0659 1.68834 77.1923C2.58879 76.4429 3.93946 75.6934 5.29013 75.6934C6.6408 75.6934 7.99148 76.0681 8.89193 77.1923L36.3556 100.05H55.265L35.4552 83.5625C33.204 81.6889 33.204 79.0659 35.4552 77.1923C36.3556 76.4429 37.7063 75.6934 39.0569 75.6934C40.4076 75.6934 41.7583 76.0681 42.6587 77.1923L70.1224 100.05H111.543L60.2175 56.5827H21.4982C18.3466 56.5827 16.0955 54.7091 16.0955 52.0861C16.0955 49.463 18.3466 47.5894 21.4982 47.5894H57.0659V17.9866C57.0659 15.3635 59.317 13.4899 62.4686 13.4899C65.6202 13.4899 67.8713 15.3635 67.8713 17.9866V50.2125L120.097 93.68V59.2057L92.6336 36.3478C90.3825 34.4742 90.3825 31.8512 92.6336 29.9776C93.5341 29.2281 94.8848 28.4787 96.2354 28.4787C97.5861 28.4787 98.9368 28.8534 99.8372 29.9776L119.647 46.4653V30.727L92.1834 7.86911C89.9323 5.99551 89.9323 3.37248 92.1834 1.49889C93.0839 0.749451 94.4345 0 95.7852 0C97.1359 0 98.4865 0.374725 99.387 1.49889L124.6 22.4832L149.812 1.49889C150.713 0.749451 152.063 0 153.414 0C154.765 0 156.115 0.374725 157.016 1.49889C159.267 3.37248 159.267 5.99551 157.016 7.86911L129.552 30.727V46.4653L149.362 29.9776C150.262 29.2281 151.613 28.4787 152.964 28.4787C154.314 28.4787 155.665 28.8534 156.565 29.9776C158.817 31.8512 158.817 34.4742 156.565 36.3478L129.102 59.2057V93.68L181.328 50.2125V17.9866C181.328 15.3635 183.579 13.4899 186.73 13.4899C189.882 13.4899 192.133 15.3635 192.133 17.9866V47.5894H227.701C230.852 47.5894 233.104 49.463 233.104 52.0861C233.104 54.7091 230.852 56.5827 227.701 56.5827H188.982L138.557 100.05H179.977L207.441 77.1923C208.341 76.4429 209.692 75.6934 211.043 75.6934C212.393 75.6934 213.744 76.0681 214.644 77.1923C216.896 79.0659 216.896 81.6889 214.644 83.5625L194.835 100.05H213.744L241.208 77.1923C242.108 76.4429 243.459 75.6934 244.809 75.6934C246.16 75.6934 247.511 76.0681 248.411 77.1923C250.662 79.0659 250.662 81.6889 248.411 83.5625L224.099 104.547Z" fill="#F9F9F9"/>
</svg>
